<svg width="24" height="32" viewBox="0 0 24 32" fill="none" xmlns="http://www.w3.org/2000/svg">
<path d="M0 13.5669V7.07813C0 5.5724 0.967946 4.58057 2.40194 4.58057H14.1965C15.6424 4.58057 16.6104 5.5724 16.6104 7.07813V13.5669H0ZM3.31016 11.3204C3.66864 11.3204 3.90762 11.0574 3.90762 10.7109V7.9863C3.90762 7.62782 3.65666 7.38879 3.31016 7.38879C2.95162 7.38879 2.70067 7.63975 2.70067 7.9863V10.7109C2.70067 11.0694 2.9636 11.3204 3.31016 11.3204ZM0 26.8313V14.9651H16.6104V26.8313H0ZM3.31016 20.6771C3.66864 20.6771 3.90762 20.4262 3.90762 20.0797V17.3551C3.90762 16.9966 3.65666 16.7575 3.31016 16.7575C2.95162 16.7575 2.70067 17.0085 2.70067 17.3551V20.0797C2.70067 20.4381 2.9636 20.6771 3.31016 20.6771ZM0 28.2295H16.6104V29.1257C16.6104 30.6314 15.6424 31.6233 14.1965 31.6233H2.40194C0.967946 31.6233 0 30.6314 0 29.1257V28.2295Z" fill="black"/>
<path d="M17.8572 10.4084C20.11 10.4084 21.9361 8.46808 21.9361 6.07457C21.9361 3.68105 20.11 1.74072 17.8572 1.74072C15.6045 1.74072 13.7783 3.68105 13.7783 6.07457C13.7783 8.46808 15.6045 10.4084 17.8572 10.4084Z" fill="white"/>
<path d="M17.8313 12.1889C14.5032 12.1889 11.7368 9.42252 11.7368 6.09448C11.7368 2.76043 14.4973 0 17.8253 0C21.1594 0 23.9257 2.76043 23.9257 6.09448C23.9257 9.42252 21.1653 12.1889 17.8313 12.1889ZM14.9155 6.10045C14.9155 6.40514 15.1306 6.60832 15.4413 6.60832H17.3115V8.48447C17.3115 8.78917 17.5206 9.01024 17.8253 9.01024C18.136 9.01024 18.3511 8.79513 18.3511 8.48447V6.60832H20.2272C20.532 6.60832 20.753 6.40514 20.753 6.10045C20.753 5.78974 20.532 5.57463 20.2272 5.57463H18.3511V3.70448C18.3511 3.39378 18.136 3.1727 17.8253 3.1727C17.5206 3.1727 17.3115 3.39378 17.3115 3.70448V5.57463H15.4413C15.1306 5.57463 14.9155 5.78974 14.9155 6.10045Z" fill="#00CF08"/>
</svg>
